<svg width="708" height="208" viewBox="0 0 708 208" fill="none" xmlns="http://www.w3.org/2000/svg">
<path d="M226.205 164.037L271.889 51.9642H278.791L324.31 164.037H314.779L273.532 60.838H276.983L235.408 164.037H226.205ZM246.089 131.007V123.283H304.426V131.007H246.089ZM343.634 164.037V87.6237H352.015V164.037H343.634ZM352.015 118.353L347.907 116.874C347.907 107.124 350.372 99.565 355.302 94.1969C360.232 88.7193 366.695 85.9804 374.693 85.9804C378.417 85.9804 381.868 86.6378 385.045 87.9524C388.332 89.267 391.345 91.4033 394.083 94.3613L388.496 100.277C386.415 97.9765 384.169 96.3332 381.759 95.3472C379.349 94.3613 376.5 93.8683 373.214 93.8683C366.969 93.8683 361.875 96.0046 357.931 100.277C353.987 104.44 352.015 110.466 352.015 118.353ZM418.538 164.037V55.2507H426.919V164.037H418.538ZM398.818 95.0186V87.6237H446.638V95.0186H398.818ZM463.676 164.037V87.6237H471.892V164.037H463.676ZM467.784 69.8761C465.922 69.8761 464.333 69.2188 463.019 67.9042C461.813 66.48 461.211 64.8367 461.211 62.9743C461.211 61.1119 461.813 59.5781 463.019 58.373C464.333 57.0584 465.922 56.4011 467.784 56.4011C469.647 56.4011 471.235 57.0584 472.55 58.373C473.864 59.5781 474.522 61.1119 474.522 62.9743C474.522 64.8367 473.864 66.48 472.55 67.9042C471.235 69.2188 469.647 69.8761 467.784 69.8761ZM526.799 165.68C520.664 165.68 515.186 164.256 510.366 161.408C505.546 158.559 501.766 154.616 499.027 149.576C496.398 144.537 495.083 138.73 495.083 132.157V87.6237H503.464V131.828C503.464 136.977 504.395 141.524 506.258 145.468C508.23 149.302 510.969 152.315 514.474 154.506C517.98 156.697 522.088 157.793 526.799 157.793C533.81 157.793 539.398 155.437 543.561 150.726C547.833 145.906 549.97 139.607 549.97 131.828V87.6237H558.35V132.157C558.35 138.73 556.981 144.537 554.242 149.576C551.613 154.616 547.888 158.559 543.068 161.408C538.357 164.256 532.934 165.68 526.799 165.68ZM581.142 164.037V87.6237H589.523V164.037H581.142ZM634.714 164.037V116.546C634.714 109.644 632.632 104.111 628.469 99.9485C624.416 95.7854 619.212 93.7039 612.858 93.7039C608.585 93.7039 604.696 94.6351 601.19 96.4975C597.685 98.3599 594.836 100.989 592.645 104.385C590.564 107.782 589.523 111.725 589.523 116.217L585.25 115.231C585.25 109.315 586.51 104.166 589.03 99.7841C591.659 95.402 595.165 92.0059 599.547 89.5957C604.039 87.1855 609.023 85.9804 614.501 85.9804C619.979 85.9804 624.854 87.1855 629.126 89.5957C633.399 92.0059 636.795 95.402 639.315 99.7841C641.835 104.166 643.095 109.315 643.095 115.231V164.037H634.714ZM688.285 164.037V116.546C688.285 109.644 686.204 104.111 682.041 99.9485C677.987 95.7854 672.783 93.7039 666.429 93.7039C662.157 93.7039 658.213 94.6351 654.598 96.4975C651.092 98.3599 648.298 100.989 646.217 104.385C644.135 107.782 643.095 111.725 643.095 116.217L638 115.231C638.11 109.206 639.479 104.057 642.109 99.7841C644.847 95.402 648.463 92.0059 652.954 89.5957C657.446 87.1855 662.431 85.9804 667.908 85.9804C673.386 85.9804 678.261 87.1855 682.534 89.5957C686.806 92.0059 690.202 95.4568 692.722 99.9485C695.351 104.331 696.666 109.48 696.666 115.395V164.037H688.285Z" fill="white"/>
<g clip-path="url(#clip0_2009_1008)">
<rect y="28.6465" width="149.998" height="149.998" fill="#9AD0E6"/>
<path d="M131.434 120.683C114.424 135.528 -7.35299 159.471 -66.1152 169.587V184.664H154.823V112.178C154.114 108.827 148.444 105.837 131.434 120.683Z" fill="#0A2276" stroke="#141414" stroke-width="3.86594"/>
<path d="M27.3669 95.7093L42.5877 101.34L49.0494 113.751L46.871 131.817L32.3003 130.812L21.8849 113.962L27.3669 95.7093Z" fill="#FFF203"/>
<path d="M3.47559 27.5073L86.6513 29.6329L107.861 89.7301L90.0726 92.241L77.9179 93.0961L41.9444 86.592L23.8536 93.4017L3.47559 89.7301V27.5073Z" fill="#0F3EB6"/>
<g style="mix-blend-mode:hard-light">
<path d="M27.557 94.5241C11.8692 89.3789 -7.82064 88.6649 -18.9502 91.9531V26.541H110.765C114.165 54.9232 109.834 107.741 65.3093 91.9531C42.5976 83.9 32.2473 87.7587 27.557 94.5241C43.9577 99.9032 55.9845 110.126 49.2836 125.681C43.8713 138.245 23.7684 127.228 23.7684 114.083C23.7684 110.201 23.0523 101.022 27.557 94.5241Z" fill="#7FB1DF" fill-opacity="0.5"/>
<path d="M-18.9502 91.9531C3.81466 85.2272 62.3941 95.246 49.2836 125.681C43.8713 138.245 23.7684 127.228 23.7684 114.083C23.7684 106.158 20.7848 76.1656 65.3093 91.9531C109.834 107.741 114.165 54.9232 110.765 26.541H-18.9502V91.9531Z" stroke="#141414" stroke-width="3.86594"/>
</g>
<path d="M26.6676 27.4834C26.6676 48.5141 7.72448 52.3543 -1.74707 51.6455V27.4834H26.6676Z" fill="#36A8E9" stroke="#141414" stroke-width="3.86594"/>
<path d="M160.707 176.289H37.3999C43.9919 175.368 50.7343 174.303 57.4568 173.081C83.9173 168.271 110.488 160.96 126.213 150.185C133.671 145.075 139.49 142.88 143.952 142.465C148.316 142.06 151.476 143.344 153.841 145.495C156.279 147.711 158.014 150.987 159.136 154.725C160.251 158.445 160.707 162.451 160.707 165.918V176.289Z" fill="#252214" stroke="#141414" stroke-width="4.71395"/>
<path d="M90.2695 186.564L150.602 43.1361L229.071 186.564H90.2695Z" fill="#06080E" fill-opacity="0.5" stroke="#141414" stroke-width="3.86594"/>
<path d="M154.437 128.967C109.283 148.606 82.6596 65.1146 74.9922 20.9141H154.437V128.967Z" fill="#36A8E9" stroke="#141414" stroke-width="3.86594"/>
<path d="M111.524 29.8096H77.1172C79.1275 50.3764 91.2279 78.8425 97.0268 90.5048C110.635 80.2987 112.362 45.7888 111.524 29.8096Z" fill="#E7EB5C" stroke="#141414" stroke-width="3.86594"/>
<path d="M149.803 47.9785L117.909 121.818C124.559 135.117 141.942 134.189 149.803 132.063V47.9785Z" fill="#0F62D1" stroke="#141414" stroke-width="3.86594"/>
</g>
<rect x="1.93297" y="30.5795" width="146.132" height="146.132" stroke="#0D0D0D" stroke-width="3.86594"/>
<defs>
<clipPath id="clip0_2009_1008">
<rect y="28.6465" width="149.998" height="149.998" fill="white"/>
</clipPath>
</defs>
</svg>
